<svg width="128" height="128" viewBox="0 0 128 128" fill="none" xmlns="http://www.w3.org/2000/svg">
  <defs>
    <linearGradient id="grad1" x1="0%" y1="0%" x2="100%" y2="100%">
      <stop offset="0%" style="stop-color:#2563eb;stop-opacity:1" />
      <stop offset="100%" style="stop-color:#10a37f;stop-opacity:1" />
    </linearGradient>
  </defs>
  <rect width="128" height="128" rx="24" fill="url(#grad1)"/>
  <path d="M32 40h64c8.84 0 16 7.16 16 16v16c0 8.84-7.16 16-16 16H32c-8.84 0-16-7.16-16-16V56c0-8.84 7.16-16 16-16z" fill="white" opacity="0.9"/>
  <circle cx="48" cy="56" r="3" fill="#2563eb"/>
  <circle cx="64" cy="56" r="3" fill="#10a37f"/>
  <circle cx="80" cy="56" r="3" fill="#2563eb"/>
  <path d="M40 72h48v4H40v-4zm0 8h32v4H40v-4z" fill="#2563eb"/>
</svg> 